Coordinates
version=1
nRows=13
nColumns=40
inDegrees=yes

Units are S.I. units (second, meters, Newtons, ...)
Angles are in degrees.

endheader
time	pelvis_tilt	pelvis_list	pelvis_rotation	pelvis_tx	pelvis_ty	pelvis_tz	hip_flexion_r	hip_adduction_r	hip_rotation_r	knee_angle_r	knee_angle_r_beta	ankle_angle_r	subtalar_angle_r	mtp_angle_r	hip_flexion_l	hip_adduction_l	hip_rotation_l	knee_angle_l	knee_angle_l_beta	ankle_angle_l	subtalar_angle_l	mtp_angle_l	lumbar_extension	lumbar_bending	lumbar_rotation	arm_flex_r	arm_add_r	arm_rot_r	elbow_flex_r	pro_sup_r	wrist_flex_r	wrist_dev_r	arm_flex_l	arm_add_l	arm_rot_l	elbow_flex_l	pro_sup_l	wrist_flex_l	wrist_dev_l
      0.00000000	     -1.26432244	     -2.06919399	     -1.85238337	     -0.91355628	      0.90005144	      1.15215037	      5.17546537	      1.60033641	    -16.24408220	    -20.74711688	     -0.36210550	     11.20350504	      1.98780903	     -2.06620502	     28.05522363	      6.67648798	      8.56099148	    -59.50880002	     -1.03862449	      7.92100332	     18.84552186	     22.20011459	     -5.43324944	      3.51118915	     -0.88704483	      1.58881682	     -9.99602085	    -18.45650348	     34.69777534	     89.95437384	      0.00000000	      0.00000000	     -5.96460656	      8.82233502	     11.06625945	     24.67806540	     89.95437384	      0.00000000	      0.00000000
      0.01000000	     -1.54947879	     -2.25991446	     -1.76440668	     -0.90511547	      0.89934273	      1.15323704	      4.78365591	      1.89494304	    -16.46639837	    -20.62914931	     -0.36004658	     11.43276131	      1.94200493	     -2.08283154	     29.07311691	      6.90437475	      9.00324953	    -57.48767059	     -1.00334913	      8.25121225	     19.01069971	     22.11002404	     -5.16088284	      3.71140386	     -0.80581603	      1.90227185	    -10.13372359	    -18.45336075	     35.29967797	     89.95437384	      0.00000000	      0.00000000	     -6.65008122	      8.80397171	     11.02923777	     24.28592036	     89.95437384	      0.00000000	      0.00000000
      0.02000000	     -1.27019577	     -2.04323780	     -1.85729004	     -0.89609964	      0.89964102	      1.15442380	      3.53079571	      1.80605185	    -16.22774277	    -20.02931047	     -0.34957741	     11.67410625	      2.15546773	     -2.13063465	     28.99820282	      6.62925599	      9.62692064	    -54.81193440	     -0.95664872	      8.89337260	     18.96693408	     22.32310027	     -5.52593050	      3.41633726	     -0.30333292	      1.82748690	    -10.24155344	    -18.53715085	     36.45144645	     89.95437384	      0.00000000	      0.00000000	     -6.84692676	      8.79714107	     11.15903272	     23.35836007	     89.95437384	      0.00000000	      0.00000000
      0.03000000	     -1.37254629	     -2.01564024	     -1.87371595	     -0.88742873	      0.89914860	      1.15550893	      2.84341389	      1.87062841	    -16.28400497	    -19.70460134	     -0.34391017	     11.88397968	      2.27018174	     -2.17103581	     29.45158729	      6.59091486	     10.15193564	    -52.22530215	     -0.91150348	      9.05130807	     18.95424061	     22.40479928	     -5.46763681	      3.32487102	     -0.05846029	      1.96111744	    -10.34583497	    -18.46873532	     37.24781968	     89.95437384	      0.00000000	      0.00000000	     -7.39004191	      8.81558983	     11.18452543	     22.96921028	     89.95437384	      0.00000000	      0.00000000
      0.04000000	     -1.73912758	     -2.28136042	     -1.79100197	     -0.87894982	      0.89801460	      1.15660422	      2.55146742	      2.25078087	    -16.53843178	    -19.61131385	     -0.34228200	     12.10914365	      2.20461113	     -2.18904325	     30.34502952	      6.91680888	     10.64689073	    -49.81522114	     -0.86943963	      9.12179722	     18.90153412	     22.30393361	     -5.11602592	      3.56996212	      0.02163224	      2.16403292	    -10.46783554	    -18.41191116	     37.86869529	     89.95437384	      0.00000000	      0.00000000	     -8.07732923	      8.81099078	     11.19423257	     22.77178200	     89.95437384	      0.00000000	      0.00000000
      0.05000000	     -1.52890213	     -2.00149222	     -1.88166985	     -0.87025286	      0.89803907	      1.15749312	      1.50931563	      2.00947580	    -16.43445301	    -19.23751845	     -0.33575804	     12.37426582	      2.48083696	     -2.27142262	     30.13394702	      6.57502511	     11.39962109	    -46.66917962	     -0.81453084	      8.68206442	     18.82920254	     22.37561855	     -5.45904224	      3.18170744	      0.39503657	      2.24434832	    -10.56581533	    -18.33036541	     38.74306446	     89.95437384	      0.00000000	      0.00000000	     -8.33862085	      8.81498800	     11.44206744	     22.20710279	     89.95437384	      0.00000000	      0.00000000
      0.06000000	     -1.75867026	     -2.02582699	     -1.83315367	     -0.86180083	      0.89720248	      1.15823540	      1.02987485	      2.08282398	    -16.64558749	    -19.02929595	     -0.33212387	     12.56236045	      2.69741365	     -2.34392108	     30.60184328	      6.55054102	     12.02497403	    -43.78474439	     -0.76418795	      8.12268693	     18.68353330	     22.21665609	     -5.29140170	      3.15479337	      0.56376739	      2.37288238	    -10.71543807	    -18.18587319	     39.38896899	     89.95437384	      0.00000000	      0.00000000	     -8.76224175	      8.79504147	     11.62910530	     21.80220691	     89.95437384	      0.00000000	      0.00000000
      0.07000000	     -1.98724621	     -2.01987362	     -1.79129359	     -0.85332897	      0.89623088	      1.15892281	      0.56159711	      2.11995812	    -16.73667700	    -18.87143829	     -0.32936873	     12.75609391	      2.95969398	     -2.42567852	     30.99602153	      6.49133807	     12.71026344	    -40.89248887	     -0.71370857	      7.71153232	     18.43844985	     21.86338968	     -5.14129192	      3.07841163	      0.71926900	      2.47711239	    -10.83976221	    -18.02208982	     40.07046052	     89.95437384	      0.00000000	      0.00000000	     -9.29721552	      8.78181055	     11.77304200	     21.71606623	     89.95437384	      0.00000000	      0.00000000
      0.08000000	     -2.04035960	     -1.95441228	     -1.82428968	     -0.84485477	      0.89552339	      1.15951910	     -0.03891071	      1.99159100	    -17.11515510	    -18.82810870	     -0.32861249	     13.02010778	      3.53590286	     -2.66496344	     31.06789262	      6.39312532	     13.57990814	    -37.91224013	     -0.66169342	      7.18453974	     18.03630134	     21.13400027	     -5.20860422	      2.93018615	      0.93144813	      2.65720944	    -10.93386115	    -17.94714246	     40.64348430	     89.95437384	      0.00000000	      0.00000000	     -9.70160733	      8.80630777	     11.77719557	     21.52912602	     89.95437384	      0.00000000	      0.00000000
      0.09000000	     -2.49050120	     -2.17089901	     -1.75774895	     -0.83639279	      0.89395084	      1.15999379	     -0.22498241	      2.24077661	    -17.32290893	    -18.76245236	     -0.32746657	     13.03044926	      3.65324321	     -2.68075271	     31.78001776	      6.55288010	     14.17799407	    -35.38613069	     -0.61760449	      7.03865333	     17.27626240	     20.72766908	     -4.79864654	      3.11964879	      1.05890589	      2.67222865	    -11.09051500	    -17.81701445	     41.29485810	     89.95437384	      0.00000000	      0.00000000	    -10.17035524	      8.76150092	     11.86845301	     21.43649240	     89.95437384	      0.00000000	      0.00000000
      0.10000000	     -2.28457898	     -1.85491761	     -1.83707896	     -0.82729518	      0.89350752	      1.16013192	     -1.12940518	      1.67096110	    -18.00514352	    -18.81826200	     -0.32844063	     13.34422748	      5.19142322	     -3.06983378	     31.43274319	      6.19571016	     15.40796612	    -32.56618276	     -0.56838711	      6.37179309	     16.45436792	     18.96646093	     -5.09834478	      2.69752151	      1.32919970	      2.72611123	    -11.18765589	    -17.75350242	     41.88363806	     89.95437384	      0.00000000	      0.00000000	    -10.43581704	      8.70279129	     12.30194920	     21.16619305	     89.95437384	      0.00000000	      0.00000000
      0.11000000	     -2.71499469	     -2.04641790	     -1.80772905	     -0.81860248	      0.89183096	      1.16040857	     -1.30635592	      1.87037868	    -18.16206341	    -18.80526832	     -0.32821385	     13.51069042	      5.25560179	     -3.14131550	     32.12877497	      6.33931852	     16.04995194	    -30.47480402	     -0.53188567	      6.30017421	     15.46164805	     18.54495480	     -4.68785557	      2.85596232	      1.45900035	      2.66948663	    -11.36781571	    -17.50626101	     42.51956610	     89.95437384	      0.00000000	      0.00000000	    -10.82501319	      8.64309364	     12.37154376	     20.97417809	     89.95437384	      0.00000000	      0.00000000
      0.12000000	     -3.02259914	     -2.17297919	     -1.86172289	     -0.80967307	      0.89036188	      1.16061421	     -1.59099321	      1.94892888	    -18.25690197	    -18.90027481	     -0.32987202	     13.64832081	      5.44040149	     -3.23205554	     32.64891035	      6.44633862	     16.75846794	    -28.66047501	     -0.50021965	      6.12547148	     14.21262268	     18.04594266	     -4.39478185	      2.93710266	      1.69305391	      2.59121925	    -11.50924255	    -17.42442143	     43.08123719	     89.95437384	      0.00000000	      0.00000000	    -11.15292108	      8.57312497	     12.48182216	     20.79582882	     89.95437384	      0.00000000	      0.00000000
